<?xml version="1.0" encoding="UTF-8" standalone="no"?>
<!-- Created with Inkscape (http://www.inkscape.org/) -->

<svg
   xmlns:dc="http://purl.org/dc/elements/1.1/"
   xmlns:cc="http://creativecommons.org/ns#"
   xmlns:rdf="http://www.w3.org/1999/02/22-rdf-syntax-ns#"
   xmlns:svg="http://www.w3.org/2000/svg"
   xmlns="http://www.w3.org/2000/svg"
   xmlns:sodipodi="http://sodipodi.sourceforge.net/DTD/sodipodi-0.dtd"
   xmlns:inkscape="http://www.inkscape.org/namespaces/inkscape"
   width="166.70409mm"
   height="88.636955mm"
   viewBox="0 0 166.70409 88.636955"
   version="1.1"
   id="svg8"
   inkscape:version="0.92.5 (2060ec1f9f, 2020-04-08)"
   sodipodi:docname="judgeVerdict.svg">
  <defs
     id="defs2" />
  <sodipodi:namedview
     id="base"
     pagecolor="#ffffff"
     bordercolor="#666666"
     borderopacity="1.0"
     inkscape:pageopacity="0.0"
     inkscape:pageshadow="2"
     inkscape:zoom="0.98994949"
     inkscape:cx="369.18091"
     inkscape:cy="124.08997"
     inkscape:document-units="mm"
     inkscape:current-layer="layer1"
     showgrid="false"
     fit-margin-top="0"
     fit-margin-left="0"
     fit-margin-right="0"
     fit-margin-bottom="0"
     inkscape:window-width="1916"
     inkscape:window-height="1029"
     inkscape:window-x="0"
     inkscape:window-y="24"
     inkscape:window-maximized="0" />
  <metadata
     id="metadata5">
    <rdf:RDF>
      <cc:Work
         rdf:about="">
        <dc:format>image/svg+xml</dc:format>
        <dc:type
           rdf:resource="http://purl.org/dc/dcmitype/StillImage" />
        <dc:title></dc:title>
      </cc:Work>
    </rdf:RDF>
  </metadata>
  <g
     inkscape:label="Layer 1"
     inkscape:groupmode="layer"
     id="layer1"
     transform="translate(-17.673178,7.4499472)">
    <g
       id="g1015">
      <path
         style="fill:#000000;stroke:#000000;stroke-width:2;stroke-miterlimit:4;stroke-dasharray:none"
         id="path817"
         d="m 83.357029,24.01729 c -0.25183,1.998158 -0.299836,4.014577 -0.350332,6.025659 -0.04896,2.441683 -0.04753,4.884062 -0.04073,7.326122 0.0027,1.81179 0.02027,3.623503 0.0185,5.435306 0.0038,1.758757 -0.0013,3.517574 -0.0093,5.276321 -0.01146,2.182759 -0.01339,4.36558 0.0019,6.548326 0.01482,1.377617 0.02426,2.755318 0.01894,4.133011 4e-5,1.460135 -0.0064,2.920243 -0.0104,4.380368 -0.0011,1.851109 -0.0084,3.702185 -0.01074,5.553297 5.29e-4,1.581891 0.01199,3.163755 0.02469,4.745588 0.0041,0.479366 0.0067,0.958741 0.0091,1.438116 0,0 -4.999191,2.547215 -4.999191,2.547215 v 0 c 0.0024,-0.482473 0.0051,-0.964946 0.0091,-1.447408 0.01265,-1.590223 0.0241,-3.180472 0.02469,-4.770753 -0.0024,-1.847461 -0.0098,-3.694882 -0.01074,-5.54234 -0.0041,-1.456593 -0.01045,-2.913163 -0.0104,-4.369766 -0.0054,-1.384131 0.0043,-2.768267 0.01897,-4.152321 0.01508,-2.183333 0.01336,-4.366741 0.0019,-6.550085 -0.008,-1.755233 -0.01334,-3.510529 -0.01093,-5.265772 -0.0033,-1.81777 0.01125,-3.635465 0.01513,-5.453219 0.0109,-2.447729 0.01744,-4.8955 0.04934,-7.343076 0.0347,-2.008455 0.08172,-4.017185 0.230148,-6.02106 0,0 5.030676,-2.493529 5.030676,-2.493529 z"
         inkscape:connector-curvature="0" />
      <g
         id="g873">
        <path
           style="fill:#000000;stroke:#000000;stroke-width:2;stroke-miterlimit:4;stroke-dasharray:none"
           id="path815"
           d="m 167.26773,25.151219 c -0.25183,1.998158 -0.29983,4.014577 -0.35033,6.025659 -0.049,2.441682 -0.0475,4.884062 -0.0407,7.326122 0.003,1.81179 0.0203,3.6235 0.0185,5.43531 0.004,1.75875 -10e-4,3.51757 -0.009,5.27632 -0.0115,2.18276 -0.0134,4.36558 0.002,6.54832 0.0148,1.37762 0.0243,2.75532 0.0189,4.13301 4e-5,1.46014 -0.006,2.92025 -0.0104,4.38037 -0.001,1.85111 -0.008,3.70219 -0.0107,5.5533 5.3e-4,1.58189 0.012,3.16375 0.0247,4.74559 0.004,0.47936 0.007,0.95874 0.009,1.43811 0,0 -4.99919,2.54722 -4.99919,2.54722 v 0 c 0.002,-0.48248 0.005,-0.96495 0.009,-1.44741 0.0127,-1.59022 0.0241,-3.18047 0.0247,-4.77075 -0.002,-1.84746 -0.01,-3.69489 -0.0107,-5.54234 -0.004,-1.4566 -0.0104,-2.91317 -0.0104,-4.36977 -0.005,-1.38413 0.004,-2.76827 0.019,-4.15232 0.0151,-2.18333 0.0134,-4.36674 0.002,-6.55009 -0.008,-1.75523 -0.0133,-3.51052 -0.0109,-5.26577 -0.003,-1.81777 0.0113,-3.63546 0.0151,-5.45322 0.0109,-2.44773 0.0174,-4.8955 0.0493,-7.34307 0.0347,-2.008457 0.0817,-4.017187 0.23015,-6.021062 0,0 5.03068,-2.493529 5.03068,-2.493529 z"
           inkscape:connector-curvature="0" />
        <path
           style="fill:#000000;stroke:#000000;stroke-width:2;stroke-miterlimit:4;stroke-dasharray:none"
           id="path819"
           d="m 125.31238,25.151219 c -0.25183,1.998158 -0.29983,4.014577 -0.35033,6.025659 -0.049,2.441683 -0.0475,4.884062 -0.0407,7.326122 0.003,1.81179 0.0203,3.623503 0.0185,5.435306 0.004,1.758757 -0.001,3.517574 -0.009,5.276321 -0.0115,2.182759 -0.0134,4.36558 0.002,6.548326 0.0148,1.377617 0.0243,2.755318 0.0189,4.133011 4e-5,1.460135 -0.006,2.920243 -0.0104,4.380368 -0.001,1.851109 -0.008,3.702185 -0.0107,5.553297 5.3e-4,1.581891 0.012,3.163755 0.0247,4.745588 0.004,0.479366 0.007,0.958741 0.009,1.438116 0,0 -4.99919,2.547215 -4.99919,2.547215 v 0 c 0.002,-0.482473 0.005,-0.964946 0.009,-1.447408 0.0126,-1.590223 0.0241,-3.180472 0.0247,-4.770753 -0.002,-1.847461 -0.01,-3.694882 -0.0107,-5.54234 -0.004,-1.456593 -0.0105,-2.913163 -0.0104,-4.369766 -0.005,-1.384131 0.004,-2.768267 0.019,-4.152321 0.0151,-2.183333 0.0134,-4.366741 0.002,-6.550085 -0.008,-1.755233 -0.0133,-3.510529 -0.0109,-5.265772 -0.003,-1.81777 0.0113,-3.635465 0.0151,-5.453219 0.0109,-2.447729 0.0174,-4.8955 0.0493,-7.343076 0.0347,-2.008455 0.0817,-4.017185 0.23015,-6.02106 0,0 5.03067,-2.493529 5.03067,-2.493529 z"
           inkscape:connector-curvature="0" />
      </g>
      <path
         inkscape:connector-curvature="0"
         d="m 50.126076,75.746874 c 4.58833,0.19334 9.218591,0.23019 13.836591,0.26896 5.606802,0.0376 11.21519,0.0365 16.822843,0.0312 4.160375,-0.002 8.320569,-0.0156 12.48097,-0.0142 4.0386,-0.003 8.07734,7.7e-4 12.1159,0.007 5.01223,0.009 10.02459,0.0103 15.0368,-0.002 3.1634,-0.0114 6.32699,-0.0187 9.49055,-0.0145 3.35286,-3e-5 6.70569,0.005 10.05855,0.008 4.25067,7.6e-4 8.50124,0.006 12.75191,0.008 3.63248,-4.1e-4 7.26488,-0.009 10.8972,-0.019 1.10076,-0.003 2.20153,-0.005 3.30232,-0.007 0,0 5.84911,3.8379 5.84911,3.8379 v 0 c -1.10789,-0.002 -2.21577,-0.004 -3.32363,-0.007 -3.65162,-0.01 -7.30328,-0.0185 -10.955,-0.019 -4.24229,0.002 -8.48448,0.008 -12.72677,0.008 -3.34473,0.003 -6.68943,0.008 -10.03419,0.008 -3.17835,0.004 -6.35672,-0.003 -9.53489,-0.0146 -5.01356,-0.0116 -10.02728,-0.0103 -15.04083,-0.002 -4.03051,0.006 -8.06116,0.0102 -12.09168,0.008 -4.17411,0.002 -8.348057,-0.009 -12.522119,-0.0116 -5.620673,-0.008 -11.241437,-0.0134 -16.861765,-0.0379 -4.611963,-0.0266 -9.224573,-0.0627 -13.826031,-0.17669 0,0 -5.725839,-3.86207 -5.725839,-3.86207 z"
         id="path823"
         style="fill:#000000;stroke:#000000;stroke-width:2.65545964;stroke-miterlimit:4;stroke-dasharray:none" />
      <path
         style="fill:#000000;stroke:#000000;stroke-width:2.65545964;stroke-miterlimit:4;stroke-dasharray:none"
         id="path821"
         d="m 57.278526,50.31582 c 4.58833,0.19334 9.218591,0.23019 13.836591,0.26896 5.606802,0.0376 11.21519,0.0365 16.822843,0.0312 4.160375,-0.002 8.320569,-0.0156 12.48097,-0.0142 4.0386,-0.003 8.07734,7.7e-4 12.1159,0.007 5.01223,0.009 10.02459,0.0103 15.0368,-0.002 3.1634,-0.0114 6.32699,-0.0187 9.49055,-0.0145 3.35286,-3e-5 6.70569,0.005 10.05855,0.008 4.25067,7.6e-4 8.50124,0.006 12.75191,0.008 3.63248,-4.1e-4 7.26488,-0.009 10.8972,-0.019 1.10076,-0.003 2.20153,-0.005 3.30232,-0.007 0,0 5.84911,3.8379 5.84911,3.8379 v 0 c -1.10789,-0.002 -2.21577,-0.004 -3.32363,-0.007 -3.65162,-0.01 -7.30328,-0.0185 -10.955,-0.019 -4.24229,0.002 -8.48448,0.008 -12.72677,0.008 -3.34473,0.003 -6.68943,0.008 -10.03419,0.008 -3.17835,0.004 -6.35672,-0.003 -9.53489,-0.0146 -5.01356,-0.0116 -10.02728,-0.0103 -15.04083,-0.002 -4.03051,0.006 -8.06116,0.0102 -12.09168,0.008 -4.17411,0.002 -8.348057,-0.009 -12.522119,-0.0116 -5.620673,-0.008 -11.241437,-0.0134 -16.861765,-0.0379 -4.611963,-0.0266 -9.224573,-0.0627 -13.826031,-0.17669 0,0 -5.725839,-3.86207 -5.725839,-3.86207 z"
         inkscape:connector-curvature="0" />
      <path
         inkscape:connector-curvature="0"
         d="m 50.474816,24.884765 c 4.58833,0.19334 9.218591,0.23019 13.836591,0.26896 5.606802,0.0376 11.21519,0.0365 16.822843,0.0312 4.160375,-0.002 8.320569,-0.0156 12.48097,-0.0142 4.0386,-0.003 8.07734,7.7e-4 12.1159,0.007 5.01223,0.009 10.02459,0.0103 15.0368,-0.002 3.1634,-0.0114 6.32699,-0.0187 9.49055,-0.0145 3.35286,-3e-5 6.70569,0.005 10.05855,0.008 4.25067,7.6e-4 8.50124,0.006 12.75191,0.008 3.63248,-4.1e-4 7.26488,-0.009 10.8972,-0.019 1.10076,-0.003 2.20153,-0.005 3.30232,-0.007 0,0 5.84911,3.8379 5.84911,3.8379 v 0 c -1.10789,-0.002 -2.21577,-0.004 -3.32363,-0.007 -3.65162,-0.01 -7.30328,-0.0185 -10.955,-0.019 -4.24229,0.002 -8.48448,0.008 -12.72677,0.008 -3.34473,0.003 -6.68943,0.008 -10.03419,0.008 -3.17835,0.004 -6.35672,-0.003 -9.53489,-0.0146 -5.01356,-0.0116 -10.02728,-0.0103 -15.04083,-0.002 -4.03051,0.006 -8.06116,0.0102 -12.09168,0.008 -4.17411,0.002 -8.348057,-0.009 -12.522119,-0.0116 -5.620673,-0.008 -11.241437,-0.0134 -16.861765,-0.0379 -4.611963,-0.0266 -9.224573,-0.0627 -13.826031,-0.17669 0,0 -5.725839,-3.86207 -5.725839,-3.86207 z"
         id="path825"
         style="fill:#000000;stroke:#000000;stroke-width:2.65545964;stroke-miterlimit:4;stroke-dasharray:none" />
      <text
         id="text829"
         y="4.9402485"
         x="100.97231"
         style="font-style:normal;font-weight:normal;font-size:19.85533714px;line-height:1.25;font-family:sans-serif;letter-spacing:0px;word-spacing:0px;fill:#000000;fill-opacity:1;stroke:none;stroke-width:0.49638343"
         xml:space="preserve"><tspan
           style="font-style:normal;font-variant:normal;font-weight:normal;font-stretch:normal;font-family:Uroob;-inkscape-font-specification:Uroob;stroke-width:0.49638343"
           y="4.9402485"
           x="100.97231"
           id="tspan827"
           sodipodi:role="line">Reality</tspan></text>
      <text
         transform="rotate(-90)"
         xml:space="preserve"
         style="font-style:normal;font-weight:normal;font-size:19.85533714px;line-height:1.25;font-family:sans-serif;letter-spacing:0px;word-spacing:0px;fill:#000000;fill-opacity:1;stroke:none;stroke-width:0.49638343"
         x="-74.524406"
         y="30.111849"
         id="text837"><tspan
           sodipodi:role="line"
           id="tspan835"
           x="-74.524406"
           y="30.111849"
           style="font-style:normal;font-variant:normal;font-weight:normal;font-stretch:normal;font-family:Uroob;-inkscape-font-specification:Uroob;stroke-width:0.49638343">Verdict</tspan></text>
      <text
         id="text841"
         y="18.906351"
         x="90.778557"
         style="font-style:normal;font-weight:normal;font-size:10.58333302px;line-height:1.25;font-family:sans-serif;letter-spacing:0px;word-spacing:0px;fill:#000000;fill-opacity:1;stroke:none;stroke-width:0.26458332"
         xml:space="preserve"><tspan
           style="font-style:normal;font-variant:normal;font-weight:500;font-stretch:normal;font-family:'TeX Gyre Chorus';-inkscape-font-specification:'TeX Gyre Chorus Medium';stroke-width:0.26458332"
           y="18.906351"
           x="90.778557"
           id="tspan839"
           sodipodi:role="line">guilty</tspan></text>
      <text
         xml:space="preserve"
         style="font-style:normal;font-weight:normal;font-size:10.58333302px;line-height:1.25;font-family:sans-serif;letter-spacing:0px;word-spacing:0px;fill:#000000;fill-opacity:1;stroke:none;stroke-width:0.26458332"
         x="36.796989"
         y="67.708374"
         id="text849"><tspan
           sodipodi:role="line"
           id="tspan847"
           x="36.796989"
           y="67.708374"
           style="font-style:normal;font-variant:normal;font-weight:normal;font-stretch:normal;font-family:'TeX Gyre Chorus';-inkscape-font-specification:'TeX Gyre Chorus';stroke-width:0.26458332">innocent</tspan></text>
      <text
         xml:space="preserve"
         style="font-style:normal;font-weight:normal;font-size:10.58333302px;line-height:1.25;font-family:sans-serif;letter-spacing:0px;word-spacing:0px;fill:#000000;fill-opacity:1;stroke:none;stroke-width:0.26458332"
         x="46.946354"
         y="41.345989"
         id="text865"><tspan
           sodipodi:role="line"
           id="tspan863"
           x="46.946354"
           y="41.345989"
           style="font-style:normal;font-variant:normal;font-weight:normal;font-stretch:normal;font-family:'TeX Gyre Chorus';-inkscape-font-specification:'TeX Gyre Chorus';stroke-width:0.26458332">guilty</tspan></text>
      <text
         id="text869"
         y="19.837685"
         x="126.8187"
         style="font-style:normal;font-weight:normal;font-size:10.58333302px;line-height:1.25;font-family:sans-serif;letter-spacing:0px;word-spacing:0px;fill:#000000;fill-opacity:1;stroke:none;stroke-width:0.26458332"
         xml:space="preserve"><tspan
           style="font-style:normal;font-variant:normal;font-weight:normal;font-stretch:normal;font-family:'TeX Gyre Chorus';-inkscape-font-specification:'TeX Gyre Chorus';stroke-width:0.26458332"
           y="19.837685"
           x="126.8187"
           id="tspan867"
           sodipodi:role="line">innocent</tspan></text>
      <path
         inkscape:connector-curvature="0"
         d="m 96.443623,37.889455 c -0.172679,0.632435 -0.511086,1.228113 -0.750378,1.846775 -0.266896,0.868687 -0.463687,1.747999 -0.597595,2.632842 -0.09301,0.882418 -0.34578,1.74942 -0.502439,2.624911 0.0022,0.03123 -0.06864,0.251585 0.103711,0.195803 0.06809,-0.02202 0.122438,-0.06213 0.184565,-0.09224 0.103063,-0.04988 0.420167,-0.190018 0.310981,-0.147705 -1.963922,0.760952 -2.488281,1.13522 -1.44716,0.474302 1.20209,-0.830499 2.106611,-1.850926 3.034898,-2.843995 0.982053,-1.090368 1.924113,-2.200376 2.933303,-3.277324 0.968191,-1.033304 2.046461,-2.011672 3.194291,-2.93997 0.77753,-0.593574 1.56128,-1.185381 2.41768,-1.718119 0.66168,-0.425037 1.38927,-0.779902 2.13108,-1.123 1.31877,-0.65957 2.73671,-1.201644 4.14867,-1.74394 0,0 -2.13267,1.255758 -2.13267,1.255758 v 0 c -0.10674,0.03944 -0.21333,0.07914 -0.32016,0.118426 -1.03938,0.382567 -0.37859,0.135929 1.60365,-0.715377 0.12875,-0.0553 -0.25812,0.109994 -0.3835,0.169326 -0.13011,0.06155 -0.2551,0.128821 -0.38264,0.193231 -0.7394,0.342515 -1.48441,0.674847 -2.14457,1.0999 -0.88446,0.518662 -1.67308,1.116763 -2.47081,1.705012 -1.17169,0.913868 -2.25826,1.890453 -3.23203,2.922245 -1.02235,1.070028 -1.9535,2.18629 -2.935211,3.276592 -0.92459,0.991714 -1.806876,2.016159 -2.967299,2.872494 -1.169449,0.820342 -0.478135,0.379568 -3.178853,1.526605 -0.268438,0.114005 -0.742118,0.197201 -0.892813,-0.09169 -0.03811,-0.07306 -0.0098,-0.156268 -0.01481,-0.234402 0.176189,-0.875318 0.452359,-1.741638 0.529273,-2.627952 0.130131,-0.891663 0.331592,-1.775733 0.563641,-2.656015 0.104965,-0.289 0.151905,-0.438168 0.283379,-0.720998 0.168935,-0.363428 0.374838,-0.717792 0.423677,-1.105299 0,0 2.490132,-0.876189 2.490132,-0.876189 z"
         id="path875"
         style="fill:#008000;stroke:#008000;stroke-width:1.68691182;stroke-miterlimit:4;stroke-dasharray:none" />
      <path
         style="fill:#008000;stroke:#008000;stroke-width:1.68691182;stroke-miterlimit:4;stroke-dasharray:none"
         id="path891"
         d="m 138.39963,63.320506 c -0.17268,0.632435 -0.51108,1.228113 -0.75038,1.846775 -0.26689,0.868687 -0.46368,1.747999 -0.59759,2.632842 -0.093,0.882418 -0.34578,1.74942 -0.50244,2.624911 0.002,0.03123 -0.0686,0.251585 0.10371,0.195803 0.0681,-0.02202 0.12244,-0.06213 0.18457,-0.09224 0.10306,-0.04988 0.42016,-0.190018 0.31098,-0.147705 -1.96393,0.760952 -2.48828,1.13522 -1.44716,0.474302 1.20209,-0.830499 2.10661,-1.850926 3.03489,-2.843995 0.98206,-1.090368 1.92412,-2.200376 2.93331,-3.277324 0.96819,-1.033304 2.04646,-2.011672 3.19429,-2.93997 0.77753,-0.593574 1.56128,-1.185381 2.41768,-1.718119 0.66168,-0.425037 1.38927,-0.779902 2.13108,-1.123 1.31877,-0.65957 2.73671,-1.201644 4.14867,-1.74394 0,0 -2.13267,1.255758 -2.13267,1.255758 v 0 c -0.10674,0.03944 -0.21333,0.07914 -0.32016,0.118426 -1.03938,0.382567 -0.37859,0.135929 1.60365,-0.715377 0.12875,-0.0553 -0.25812,0.109994 -0.3835,0.169326 -0.13011,0.06155 -0.2551,0.128821 -0.38264,0.193231 -0.7394,0.342515 -1.48441,0.674847 -2.14457,1.0999 -0.88446,0.518662 -1.67308,1.116763 -2.47081,1.705012 -1.17169,0.913868 -2.25826,1.890453 -3.23203,2.922245 -1.02235,1.070028 -1.9535,2.18629 -2.93521,3.276592 -0.92459,0.991714 -1.80688,2.016159 -2.9673,2.872494 -1.16945,0.820342 -0.47814,0.379568 -3.17885,1.526605 -0.26844,0.114005 -0.74212,0.197201 -0.89282,-0.09169 -0.0381,-0.07306 -0.01,-0.156268 -0.0148,-0.234402 0.17619,-0.875318 0.45236,-1.741638 0.52928,-2.627952 0.13013,-0.891663 0.33159,-1.775733 0.56364,-2.656015 0.10496,-0.289 0.1519,-0.438168 0.28338,-0.720998 0.16893,-0.363428 0.37483,-0.717792 0.42367,-1.105299 0,0 2.49013,-0.876189 2.49013,-0.876189 z"
         inkscape:connector-curvature="0" />
      <g
         transform="translate(39.118404,-36.957692)"
         id="g946">
        <text
           xml:space="preserve"
           style="font-style:normal;font-variant:normal;font-weight:normal;font-stretch:normal;font-size:10.58333302px;line-height:1.25;font-family:Purisa;-inkscape-font-specification:Purisa;letter-spacing:0px;word-spacing:0px;fill:#ff0000;fill-opacity:1;stroke:none;stroke-width:0.26458332"
           x="55.940475"
           y="106.87798"
           id="text907"><tspan
             sodipodi:role="line"
             id="tspan905"
             x="55.940475"
             y="106.87798"
             style="font-style:normal;font-variant:normal;font-weight:bold;font-stretch:normal;font-size:14.11111069px;font-family:Purisa;-inkscape-font-specification:'Purisa Bold';fill:#ff0000;stroke-width:0.26458332">FN</tspan></text>
        <g
           id="g922"
           transform="matrix(0.51602488,0,0,0.51602488,28.351929,47.394037)">
          <text
             xml:space="preserve"
             style="font-style:normal;font-variant:normal;font-weight:normal;font-stretch:normal;font-size:10.58333302px;line-height:1.25;font-family:Purisa;-inkscape-font-specification:Purisa;letter-spacing:0px;word-spacing:0px;fill:#ff0000;fill-opacity:1;stroke:none;stroke-width:0.26458332"
             x="41.577381"
             y="104.9881"
             id="text915"><tspan
               sodipodi:role="line"
               id="tspan913"
               x="41.577381"
               y="104.9881"
               style="font-style:normal;font-variant:normal;font-weight:bold;font-stretch:normal;font-size:14.11111069px;font-family:Purisa;-inkscape-font-specification:'Purisa Bold';fill:#ff0000;stroke-width:0.26458332">x</tspan></text>
          <circle
             r="6.9779801"
             cy="101.31216"
             cx="46.16349"
             id="path917"
             style="fill:none;stroke:#ff0000;stroke-width:1.27320218;stroke-miterlimit:4;stroke-dasharray:none" />
        </g>
      </g>
      <g
         transform="translate(41.109919,-65.959856)"
         id="g954">
        <text
           xml:space="preserve"
           style="font-style:normal;font-variant:normal;font-weight:normal;font-stretch:normal;font-size:10.58333302px;line-height:1.25;font-family:Purisa;-inkscape-font-specification:Purisa;letter-spacing:0px;word-spacing:0px;fill:#ff0000;fill-opacity:1;stroke:none;stroke-width:0.26458332"
           x="97.139885"
           y="110.27976"
           id="text911"><tspan
             sodipodi:role="line"
             id="tspan909"
             x="97.139885"
             y="110.27976"
             style="font-style:normal;font-variant:normal;font-weight:bold;font-stretch:normal;font-size:14.11111069px;font-family:Purisa;-inkscape-font-specification:'Purisa Bold';fill:#ff0000;stroke-width:0.26458332">FP</tspan></text>
        <g
           transform="matrix(0.51602488,0,0,0.51602488,69.551339,50.47126)"
           id="g938">
          <text
             id="text934"
             y="104.9881"
             x="41.577381"
             style="font-style:normal;font-variant:normal;font-weight:normal;font-stretch:normal;font-size:10.58333302px;line-height:1.25;font-family:Purisa;-inkscape-font-specification:Purisa;letter-spacing:0px;word-spacing:0px;fill:#ff0000;fill-opacity:1;stroke:none;stroke-width:0.26458332"
             xml:space="preserve"><tspan
               style="font-style:normal;font-variant:normal;font-weight:bold;font-stretch:normal;font-size:14.11111069px;font-family:Purisa;-inkscape-font-specification:'Purisa Bold';fill:#ff0000;stroke-width:0.26458332"
               y="104.9881"
               x="41.577381"
               id="tspan932"
               sodipodi:role="line">x</tspan></text>
          <circle
             style="fill:none;stroke:#ff0000;stroke-width:1.27320218;stroke-miterlimit:4;stroke-dasharray:none"
             id="circle936"
             cx="46.16349"
             cy="101.31216"
             r="6.9779801" />
        </g>
      </g>
      <text
         xml:space="preserve"
         style="font-style:normal;font-weight:normal;font-size:10.58333302px;line-height:1.25;font-family:sans-serif;letter-spacing:0px;word-spacing:0px;fill:#000000;fill-opacity:1;stroke:none;stroke-width:0.26458332"
         x="90.778557"
         y="18.906351"
         id="text958"><tspan
           sodipodi:role="line"
           id="tspan956"
           x="90.778557"
           y="18.906351"
           style="font-style:normal;font-variant:normal;font-weight:500;font-stretch:normal;font-family:'TeX Gyre Chorus';-inkscape-font-specification:'TeX Gyre Chorus Medium';stroke-width:0.26458332">guilty</tspan></text>
      <text
         xml:space="preserve"
         style="font-style:normal;font-weight:normal;font-size:10.58333302px;line-height:1.25;font-family:sans-serif;letter-spacing:0px;word-spacing:0px;fill:#000000;fill-opacity:1;stroke:none;stroke-width:0.26458332"
         x="126.8187"
         y="19.837685"
         id="text962"><tspan
           sodipodi:role="line"
           id="tspan960"
           x="126.8187"
           y="19.837685"
           style="font-style:normal;font-variant:normal;font-weight:normal;font-stretch:normal;font-family:'TeX Gyre Chorus';-inkscape-font-specification:'TeX Gyre Chorus';stroke-width:0.26458332">innocent</tspan></text>
      <text
         id="text966"
         y="41.345989"
         x="46.946354"
         style="font-style:normal;font-weight:normal;font-size:10.58333302px;line-height:1.25;font-family:sans-serif;letter-spacing:0px;word-spacing:0px;fill:#000000;fill-opacity:1;stroke:none;stroke-width:0.26458332"
         xml:space="preserve"><tspan
           style="font-style:normal;font-variant:normal;font-weight:normal;font-stretch:normal;font-family:'TeX Gyre Chorus';-inkscape-font-specification:'TeX Gyre Chorus';stroke-width:0.26458332"
           y="41.345989"
           x="46.946354"
           id="tspan964"
           sodipodi:role="line">guilty</tspan></text>
      <text
         id="text970"
         y="67.708374"
         x="36.796989"
         style="font-style:normal;font-weight:normal;font-size:10.58333302px;line-height:1.25;font-family:sans-serif;letter-spacing:0px;word-spacing:0px;fill:#000000;fill-opacity:1;stroke:none;stroke-width:0.26458332"
         xml:space="preserve"><tspan
           style="font-style:normal;font-variant:normal;font-weight:normal;font-stretch:normal;font-family:'TeX Gyre Chorus';-inkscape-font-specification:'TeX Gyre Chorus';stroke-width:0.26458332"
           y="67.708374"
           x="36.796989"
           id="tspan968"
           sodipodi:role="line">innocent</tspan></text>
    </g>
  </g>
</svg>
